<?xml version="1.0" encoding="utf-8"?>
<!-- Generator: Adobe Illustrator 25.1.0, SVG Export Plug-In . SVG Version: 6.00 Build 0)  -->
<svg version="1.1" id="Layer_1" xmlns="http://www.w3.org/2000/svg" xmlns:xlink="http://www.w3.org/1999/xlink" x="0px" y="0px"
	 viewBox="0 0 1242 672" style="enable-background:new 0 0 1242 672;" xml:space="preserve">
<style type="text/css">
	.st0{fill:#FFFFFF;}
</style>
<g id="Layer_2_1_">
	<path class="st0" d="M25,653.6c1.6-4.9,2.8-8.7,4.1-12.4c8.7-26,17.3-52.1,26-78.1c8.6-25.7,17.1-51.5,25.7-77.2
		c7.1-21.3,14-42.7,21-64c6.7-20.2,13.3-40.5,20-60.7c7-21.2,13.9-42.4,20.9-63.5c6.8-20.5,13.4-41.1,20.2-61.7
		c7-21.2,14.2-42.3,21.1-63.5c4-12.2,7.6-24.4,11.5-36.6c0.8-2,1.7-4.1,2.7-6l37.4-4.3c3-8.2,6-16.2,8.9-24.3
		c2.3-6.4,4.1-13,6.7-19.2c0.7-1.8,3.1-3.4,5-4.1c12.2-4.3,24.6-8.2,36.9-12.3c31.3-10.7,62.5-21.9,94-32.2
		c20.8-6.8,41.9-13.4,63.2-18c21.6-4.6,42,1,57.4,17c11.6,12,16.4,28,18.1,44.6c2.5,26.2-2.2,51.5-9.4,76.4
		c-3.2,11.2-6.5,22.4-10.7,33.2c-4.4,11.3-9.7,22.3-15.2,33.1c-6.5,12.7-12.9,25.5-20.6,37.5c-11.6,18.1-23.8,35.9-36.6,53.2
		c-7,9.5-15.5,18.2-23.9,26.6c-12,12.1-24.3,24-37.1,35.2c-8.7,7.7-18.1,14.6-28,20.7c-13.2,8-26.7,15.8-40.8,21.8
		c-15.7,6.8-32.2,11.6-48.5,17.1c-23.7,8.1-47.5,16.1-71.3,24.1c-5.5,1.8-11.4,2.7-16.7,5c-2.8,1.2-5.9,4-6.9,6.8
		c-11.4,32.9-22.4,65.9-33.4,98.9c-4.2,12.6-8.7,25.2-12,38.1c-1.9,7.2-6.4,10.2-12.4,12.9c-13.5,6.1-26.7,12.7-40.2,18.9
		C50.5,642.3,38.4,647.6,25,653.6z M193.9,365.4c2.2-0.5,3.4-0.6,4.6-1c16.6-5.5,33.1-11,49.7-16.6c24.3-8.2,48.6-16.2,72.8-24.8
		c8.2-2.9,16.6-6.4,23.8-11.3c17.5-11.9,33.2-25.9,46.3-42.8c10.5-13.6,20.2-27.7,27.2-43.3c5.7-12.9,10.6-26.1,14.6-39.6
		c4.1-13.5,5.9-27.4,2.3-41.4c-4.1-15.9-13.6-23.7-30-23.8c-2.5-0.1-5,0.1-7.4,0.8c-23.5,7.3-46.9,14.8-70.4,22.3
		c-10.9,3.5-21.8,7-32.7,10.7c-11.8,4-23.5,8.2-35.6,12.4C237.4,232.9,215.8,298.7,193.9,365.4z"/>
	<path class="st0" d="M708.8,385.1l-44,11.2c-0.2-4.2-0.2-7.9-0.6-11.6c-1.5-15.1-11.9-26.1-26.8-27.4c-17.8-1.4-33.3,4.6-46.8,16
		c-5.7,4.8-12.3,9.1-16.4,15c-8.3,12.1-16.8,24.5-22.1,38.1c-7.8,20-14.9,40.6-14.6,62.7c0.2,12.5,3,24.1,12.7,32.9
		c6.9,6.2,15.4,7.5,24.2,7.5c12.8-0.1,24.4-4.7,35.6-10.4c7.2-3.7,14.1-7.9,19.5-10.9l10.2-31.7h-46.5c4.6-13.8,9.3-27.7,14-41.9
		l88.3-2.7c-4,12.7-7.8,24.7-11.6,36.7c-6.1,19.1-12.4,38.2-18.3,57.3c-1.4,4.5-3.7,8-7.7,10.5c-9.8,6.2-19,13.6-29.4,18.3
		c-22.4,10.1-45.3,19-70.8,18.4c-17.4-0.4-33.2-5.4-45.9-16.7c-9.1-8.1-14.3-19.7-17-32.1c-5-22.8-1.8-45,4.5-67
		c3-10.5,6-21.1,10.3-31.1c4.6-10.7,10-21,16.2-30.8c7.7-12.1,16.4-23.5,25-35c2.2-3,9.6-11,12.3-13.7
		c18.9-18.9,37.1-26.5,63.5-30.9c15.5-2.6,31.5-3,47.1,0.8c22.9,5.7,35.5,25.2,36,48C709.9,371.4,709.1,378.2,708.8,385.1z"/>
	<path class="st0" d="M779,314.4h41.3c-5.2,16.4-10.3,32.8-15.6,49.2c-7.5,23.4-15.3,46.7-22.6,70.2c-5.8,18.5-11,37.2-16.4,55.8
		c-0.4,1.6-0.6,3.3-0.7,4.9c-1.1,18.5,8,28.2,26.5,28.3c13.3,0,25.9-3.4,35.5-12.9c5.2-5,9.5-11,12.5-17.6
		c5.9-13.7,10.6-27.9,15.5-41.9c6.5-18.7,12.8-37.4,19-56.2c6.1-18.6,12-37.3,17.8-56c2.8-9,5.4-18,8.2-27.6h41.2
		c-0.8,2.2-1.6,4.6-2.4,7c-7.7,24-15.5,48-23.2,72c-6.4,19.9-12.5,39.9-19.4,59.6c-6.3,18-13.6,35.6-20.4,53.4
		c-7.6,20.1-21.1,35.5-39,46.9c-27,17.4-56.5,20.6-87.4,13.4c-22.8-5.3-30.8-26.9-29.9-43.7c1.1-18.6,6.5-36.3,11.9-54
		c6.5-21.1,13.3-42.1,20.1-63.1s13.6-42,20.2-63.1C774.4,331.3,776.4,323.3,779,314.4z"/>
	<path class="st0" d="M351,406.9c-13.9,42.9-27.4,84.7-41.1,127.5c14.2-0.6,27.9-1,41.5-1.8c21.9-1.4,37.5-12.8,48.8-31.1
		c12.6-20.5,20.5-43.1,27.3-66c3.2-11.2,5.1-22.7,5.5-34.3c1-21.3-6.5-31.1-28-32.9c-1.1-0.1-2.3-0.1-4.5-0.2l39.2-41.2
		c2.9,0.7,5.8,1.5,8.6,2.4c20,7.6,26.1,24.6,28.6,43.6c2.7,19.9-2,39-6.4,58.2c-4.6,20.1-11.8,39.5-21.5,57.7
		c-5.8,11.1-13.2,21.3-19.4,32.2c-7.5,13.2-18.4,23.2-30,32.1c-19.9,15.3-43.1,22.3-68.2,22.9c-24.5,0.6-48.9,1.4-73.4,2.1
		c-0.8,0-1.6-0.1-3-0.2c15.6-48.7,31.2-97.1,46.9-145.9L351,406.9z"/>
	<path class="st0" d="M1229,301.1c-4.5,14.5-8.8,28.5-13.2,42.7l-60.3,1.9c-22.4,69.4-44.7,138.6-67.2,208.4h-40.9
		c22.1-68.7,44.3-137.5,66.7-207.1l-60.1,1.8c4.6-14.6,8.9-28.5,13.4-42.7L1229,301.1z"/>
	<path class="st0" d="M953.8,557.7h-41.4c4-12.9,8-25.4,11.9-38c4.1-13,8.1-25.9,12.3-38.9c4.3-13.3,9-26.4,13.3-39.7
		c4.4-13.5,8.5-27.2,12.9-40.7c4.1-12.6,8.6-25.1,12.7-37.8c5.8-18,11.3-36.1,17.2-54.8h41.3c-1.4,4.2-3,8.8-4.5,13.4
		c-4,11.8-8.1,23.6-12,35.4c-6.7,20.5-13.3,41-19.9,61.5c-6.9,21.5-13.8,42.9-20.8,64.4c-6.4,19.9-12.9,39.8-19.2,59.7
		C956.2,547.3,955.2,552.5,953.8,557.7z"/>
	<path class="st0" d="M207.1,578.8h-40.9c12.3-37.8,24.7-76,37.4-115.2l45.3-14C234.8,493.1,221.1,535.6,207.1,578.8z"/>
	<path class="st0" d="M248.1,75.1l-15.9,44.5l-38.2,4.4c4.2-12.4,8-23.6,12-35.6L246.8,74L248.1,75.1z"/>
</g>
</svg>
