<?xml version="1.0" encoding="utf-8"?>
<!-- Generator: Adobe Illustrator 25.1.0, SVG Export Plug-In . SVG Version: 6.00 Build 0)  -->
<svg version="1.1" id="Layer_1" xmlns="http://www.w3.org/2000/svg" xmlns:xlink="http://www.w3.org/1999/xlink" x="0px" y="0px"
	 viewBox="0 0 1080 251" style="enable-background:new 0 0 1080 251;" xml:space="preserve">
<style type="text/css">
	.st0{fill:#FFFFFF;}
</style>
<g>
	<path class="st0" d="M379,211c0.4-1.3,0.8-2.3,1.1-3.3c2.3-7,4.6-13.9,7-20.9c2.3-6.9,4.6-13.8,6.9-20.6c1.9-5.7,3.8-11.4,5.6-17.1
		c1.8-5.4,3.6-10.8,5.3-16.2c1.9-5.7,3.7-11.3,5.6-17c1.8-5.5,3.6-11,5.4-16.5c1.9-5.7,3.8-11.3,5.7-17c1.1-3.3,2-6.5,3.1-9.8
		c0.2-0.5,0.5-1,0.7-1.6c3.3-0.4,6.6-0.8,10-1.2c0.8-2.2,1.6-4.3,2.4-6.5c0.6-1.7,1.1-3.5,1.8-5.1c0.2-0.5,0.8-0.9,1.4-1.1
		c3.3-1.1,6.6-2.2,9.9-3.3c8.4-2.9,16.7-5.9,25.1-8.6c5.6-1.8,11.2-3.6,16.9-4.8c5.8-1.2,11.2,0.3,15.4,4.6
		c3.1,3.2,4.4,7.5,4.8,11.9c0.7,7-0.6,13.8-2.5,20.4c-0.9,3-1.7,6-2.9,8.9c-1.2,3-2.6,6-4.1,8.9c-1.7,3.4-3.5,6.8-5.5,10
		c-3.1,4.9-6.4,9.6-9.8,14.2c-1.9,2.6-4.1,4.9-6.4,7.1c-3.2,3.2-6.5,6.4-9.9,9.4c-2.3,2-4.8,3.9-7.5,5.5c-3.5,2.1-7.1,4.2-10.9,5.8
		c-4.2,1.8-8.6,3.1-13,4.6c-6.4,2.2-12.7,4.3-19.1,6.4c-1.5,0.5-3,0.7-4.5,1.3c-0.7,0.3-1.6,1.1-1.8,1.8c-3,8.8-6,17.6-8.9,26.4
		c-1.1,3.4-2.3,6.7-3.2,10.2c-0.5,1.9-1.7,2.7-3.3,3.4c-3.6,1.6-7.1,3.4-10.7,5.1C385.8,208,382.6,209.4,379,211z M424.2,134
		c0.6-0.1,0.9-0.2,1.2-0.3c4.4-1.5,8.9-2.9,13.3-4.4c6.5-2.2,13-4.3,19.5-6.6c2.2-0.8,4.4-1.7,6.4-3c4.7-3.2,8.9-6.9,12.4-11.4
		c2.8-3.6,5.4-7.4,7.3-11.6c1.6-3.4,2.8-7,3.9-10.6s1.6-7.3,0.6-11.1c-1.1-4.2-3.6-6.3-8-6.4c-0.7,0-1.4,0-2,0.2
		c-6.3,2-12.5,4-18.8,6c-2.9,0.9-5.8,1.9-8.7,2.9c-3.2,1.1-6.3,2.2-9.5,3.3C435.8,98.5,430,116.1,424.2,134z"/>
	<path class="st0" d="M561.9,139.2c-4,1-7.8,2-11.8,3c-0.1-1.1-0.1-2.1-0.2-3.1c-0.4-4.1-3.2-7-7.2-7.3c-4.8-0.4-8.9,1.2-12.5,4.3
		c-1.5,1.3-3.3,2.4-4.4,4c-2.2,3.2-4.5,6.6-5.9,10.2c-2.1,5.3-4,10.9-3.9,16.8c0.1,3.4,0.8,6.4,3.4,8.8c1.8,1.7,4.1,2,6.5,2
		c3.4,0,6.5-1.3,9.5-2.8c1.9-1,3.8-2.1,5.2-2.9c1-3.2,1.9-5.8,2.7-8.5c-4.1,0-8.2,0-12.4,0c1.2-3.7,2.5-7.4,3.7-11.2
		c7.9-0.2,15.6-0.5,23.6-0.7c-1.1,3.4-2.1,6.6-3.1,9.8c-1.6,5.1-3.3,10.2-4.9,15.3c-0.4,1.2-1,2.2-2,2.8c-2.6,1.7-5.1,3.6-7.9,4.9
		c-6,2.7-12.1,5.1-18.9,4.9c-4.6-0.1-8.9-1.4-12.3-4.5c-2.4-2.2-3.8-5.3-4.6-8.6c-1.3-6.1-0.5-12,1.2-17.9c0.8-2.8,1.6-5.6,2.8-8.3
		c1.2-2.8,2.7-5.6,4.3-8.2c2.1-3.2,4.4-6.3,6.7-9.4c0.6-0.8,2.6-2.9,3.3-3.7c5.1-5,9.9-7.1,17-8.3c4.1-0.7,8.4-0.8,12.6,0.2
		c6.1,1.5,9.5,6.7,9.6,12.8C562.2,135.6,562,137.4,561.9,139.2z"/>
	<path class="st0" d="M580.6,120.3c3.7,0,7.3,0,11,0c-1.4,4.4-2.8,8.8-4.2,13.2c-2,6.3-4.1,12.5-6,18.8c-1.5,5-2.9,9.9-4.4,14.9
		c-0.1,0.4-0.2,0.9-0.2,1.3c-0.3,4.9,2.1,7.5,7.1,7.6c3.6,0,6.9-0.9,9.5-3.4c1.4-1.3,2.6-3,3.3-4.7c1.6-3.7,2.8-7.4,4.1-11.2
		c1.7-5,3.4-10,5.1-15c1.6-5,3.2-10,4.8-15c0.8-2.4,1.4-4.8,2.2-7.4c3.7,0,7.3,0,11,0c-0.2,0.6-0.4,1.2-0.6,1.9
		c-2.1,6.4-4.1,12.8-6.2,19.3c-1.7,5.3-3.3,10.7-5.2,15.9c-1.7,4.8-3.6,9.5-5.4,14.3c-2,5.4-5.6,9.5-10.4,12.5
		c-7.2,4.6-15.1,5.5-23.4,3.6c-6.1-1.4-8.2-7.2-8-11.7c0.3-5,1.7-9.7,3.2-14.4c1.7-5.6,3.6-11.3,5.4-16.9c1.8-5.6,3.6-11.2,5.4-16.9
		C579.4,124.9,580,122.7,580.6,120.3z"/>
	<path class="st0" d="M466.2,145.1c-3.7,11.5-7.3,22.7-11,34.1c3.8-0.2,7.5-0.3,11.1-0.5c5.9-0.4,10-3.4,13-8.3
		c3.4-5.5,5.5-11.5,7.3-17.6c0.9-2.9,1.3-6.1,1.5-9.2c0.3-5.7-1.7-8.3-7.5-8.8c-0.3,0-0.6,0-1.2-0.1c3.5-3.7,6.9-7.2,10.5-11
		c0.6,0.2,1.5,0.3,2.3,0.7c5.3,2,7,6.6,7.6,11.7c0.7,5.3-0.5,10.4-1.7,15.6c-1.2,5.4-3.2,10.6-5.7,15.4c-1.6,3-3.5,5.7-5.2,8.6
		c-2,3.5-4.9,6.2-8,8.6c-5.3,4.1-11.5,6-18.3,6.1c-6.5,0.1-13.1,0.4-19.6,0.6c-0.2,0-0.4,0-0.8-0.1c4.2-13,8.4-26,12.5-39
		C457.4,149.6,461.6,147.4,466.2,145.1z"/>
	<path class="st0" d="M701,116.8c-1.2,3.9-2.4,7.6-3.5,11.4c-5.3,0.2-10.7,0.3-16.1,0.5c-6,18.6-11.9,37.1-18,55.7
		c-3.6,0-7.2,0-10.9,0c5.9-18.4,11.8-36.8,17.8-55.4c-5.3,0.2-10.5,0.3-16.1,0.5c1.2-3.9,2.4-7.6,3.6-11.4
		C672.2,117.6,686.5,117.2,701,116.8z"/>
	<path class="st0" d="M627.4,185.4c-3.7,0-7.2,0-11.1,0c1.1-3.4,2.1-6.8,3.2-10.2c1.1-3.5,2.2-6.9,3.3-10.4
		c1.2-3.5,2.4-7.1,3.6-10.6c1.2-3.6,2.3-7.3,3.5-10.9c1.1-3.4,2.3-6.7,3.4-10.1c1.5-4.8,3-9.6,4.6-14.6c3.7,0,7.3,0,11.1,0
		c-0.4,1.1-0.8,2.3-1.2,3.6c-1.1,3.2-2.2,6.3-3.2,9.5c-1.8,5.5-3.5,11-5.3,16.5c-1.9,5.7-3.7,11.5-5.5,17.2
		c-1.7,5.3-3.4,10.6-5.1,16C628,182.6,627.8,184,627.4,185.4z"/>
	<path class="st0" d="M427.7,191.1c-3.7,0-7.3,0-10.9,0c3.3-10.1,6.6-20.3,10-30.8c3.9-1.2,7.8-2.4,12.1-3.7
		C435.1,168.1,431.4,179.5,427.7,191.1z"/>
	<path class="st0" d="M438.7,56.3c-1.4,4-2.8,7.9-4.2,11.9c-3.5,0.4-6.7,0.8-10.2,1.2c1.1-3.3,2.1-6.3,3.2-9.5
		c3.5-1.3,7.2-2.5,10.9-3.8C438.4,56.1,438.6,56.2,438.7,56.3z"/>
</g>
</svg>
