<?xml version="1.0" encoding="utf-8"?>
<!-- Generator: Adobe Illustrator 22.1.0, SVG Export Plug-In . SVG Version: 6.00 Build 0)  -->
<svg version="1.1" id="Layer_1" xmlns="http://www.w3.org/2000/svg" xmlns:xlink="http://www.w3.org/1999/xlink" x="0px" y="0px"
	 viewBox="0 0 600 163" style="enable-background:new 0 0 600 163;" xml:space="preserve">
<style type="text/css">
	.st0{fill:#FFFFFF;}
</style>
<g id="Layer_2_1_">
	<path class="st0" d="M150,161.2c0.4-1.2,0.7-2.2,1-3.1c2.2-6.5,4.3-13,6.5-19.5c2.1-6.4,4.3-12.8,6.4-19.2
		c1.8-5.3,3.5-10.6,5.2-15.9c1.7-5,3.3-10.1,5-15.1c1.7-5.3,3.5-10.6,5.2-15.8c1.7-5.1,3.4-10.2,5-15.4c1.7-5.3,3.5-10.5,5.3-15.8
		c1-3,1.9-6.1,2.9-9.1c0.2-0.5,0.4-1,0.7-1.5l9.3-1.1c0.7-2,1.5-4,2.2-6.1c0.6-1.6,1-3.2,1.7-4.8c0.2-0.4,0.8-0.9,1.2-1
		c3-1.1,6.1-2,9.2-3.1c7.8-2.7,15.6-5.5,23.4-8c5.2-1.7,10.4-3.3,15.8-4.5c5.4-1.2,10.5,0.2,14.3,4.2c2.9,3,4.1,7,4.5,11.1
		c0.6,6.5-0.5,12.8-2.3,19c-0.8,2.8-1.6,5.6-2.7,8.3c-1.1,2.8-2.4,5.6-3.8,8.2c-1.6,3.2-3.2,6.3-5.1,9.3c-2.9,4.5-5.9,8.9-9.1,13.3
		c-1.8,2.4-3.9,4.5-5.9,6.6c-3,3-6,6-9.2,8.8c-2.2,1.9-4.5,3.6-7,5.2c-3.3,2-6.7,3.9-10.2,5.4c-3.9,1.7-8,2.9-12.1,4.3
		c-5.9,2-11.8,4-17.8,6c-1.4,0.5-2.8,0.7-4.2,1.2c-0.7,0.3-1.5,1-1.7,1.7c-2.8,8.2-5.6,16.4-8.3,24.6c-1.1,3.1-2.2,6.3-3,9.5
		c-0.5,1.8-1.6,2.5-3.1,3.2c-3.4,1.5-6.7,3.2-10,4.7C156.4,158.4,153.3,159.7,150,161.2z M192.1,89.4c0.5-0.1,0.8-0.2,1.1-0.2
		c4.1-1.4,8.3-2.8,12.4-4.1c6.1-2,12.1-4,18.1-6.2c2.1-0.7,4.1-1.6,5.9-2.8c4.4-3,8.3-6.4,11.5-10.7c2.6-3.4,5-6.9,6.8-10.8
		c1.4-3.2,2.6-6.5,3.6-9.9c1-3.4,1.5-6.8,0.6-10.3c-1-4-3.4-5.9-7.5-5.9c-0.6,0-1.2,0-1.9,0.2c-5.9,1.8-11.7,3.7-17.5,5.6
		c-2.7,0.9-5.4,1.7-8.1,2.7c-2.9,1-5.9,2-8.9,3.1C202.9,56.4,197.5,72.8,192.1,89.4z"/>
	<path class="st0" d="M320.4,94.3l-11,2.8c0-1,0-2-0.1-2.9c-0.4-3.8-3-6.5-6.7-6.8c-4.4-0.4-8.3,1.1-11.7,4
		c-1.4,1.2-3.1,2.3-4.1,3.7c-2.1,3-4.2,6.1-5.5,9.5c-2,5-3.7,10.1-3.6,15.6c0,3.1,0.7,6,3.2,8.2c1.7,1.5,3.8,1.9,6,1.9
		c3.2,0,6.1-1.2,8.9-2.6c1.8-0.9,3.5-2,4.9-2.7l2.5-7.9h-11.6c1.2-3.4,2.3-6.9,3.5-10.4l22-0.7c-1,3.2-1.9,6.2-2.9,9.1
		c-1.5,4.8-3.1,9.5-4.6,14.3c-0.4,1.1-0.9,2-1.9,2.6c-2.4,1.5-4.7,3.4-7.3,4.6c-5.6,2.5-11.3,4.7-17.6,4.6
		c-4.3-0.1-8.3-1.3-11.4-4.2c-2.3-2-3.6-4.9-4.2-8c-1.2-5.7-0.4-11.2,1.1-16.7c0.7-2.6,1.5-5.3,2.6-7.8c1.1-2.7,2.5-5.2,4-7.7
		c1.9-3,4.1-5.9,6.2-8.7c0.6-0.7,2.4-2.7,3.1-3.4c4.7-4.7,9.2-6.6,15.8-7.7c3.9-0.7,7.9-0.7,11.7,0.2c5.7,1.4,8.9,6.3,9,12
		C320.7,90.9,320.5,92.6,320.4,94.3z"/>
	<path class="st0" d="M337.9,76.7h10.3c-1.3,4.1-2.6,8.2-3.9,12.3c-1.9,5.8-3.8,11.6-5.6,17.5c-1.4,4.6-2.7,9.3-4.1,13.9
		c-0.1,0.4-0.2,0.8-0.2,1.2c-0.3,4.6,2,7,6.6,7c3.3,0,6.4-0.8,8.9-3.2c1.3-1.3,2.4-2.7,3.1-4.4c1.5-3.4,2.6-6.9,3.9-10.4
		c1.6-4.7,3.2-9.3,4.7-14c1.5-4.6,3-9.3,4.4-13.9c0.7-2.2,1.3-4.5,2-6.9h10.3c-0.2,0.5-0.4,1.1-0.6,1.7c-1.9,6-3.8,12-5.8,17.9
		c-1.6,5-3.1,9.9-4.8,14.9c-1.6,4.5-3.4,8.9-5.1,13.3c-1.9,5-5.3,8.8-9.7,11.7c-6.7,4.3-14.1,5.1-21.8,3.3
		c-5.7-1.3-7.7-6.7-7.4-10.9c0.3-4.6,1.6-9,3-13.5c1.6-5.3,3.3-10.5,5-15.7c1.7-5.2,3.4-10.5,5-15.7
		C336.7,80.9,337.2,78.9,337.9,76.7z"/>
	<path class="st0" d="M231.2,99.7c-3.5,10.7-6.8,21.1-10.3,31.8c3.5-0.2,6.9-0.2,10.4-0.5c5.5-0.3,9.3-3.2,12.2-7.8
		c3.2-5.1,5.1-10.7,6.8-16.4c0.8-2.8,1.3-5.6,1.4-8.5c0.2-5.3-1.6-7.7-7-8.2c-0.3,0-0.6,0-1.1-0.1l9.8-10.3c0.7,0.2,1.4,0.4,2.1,0.6
		c5,1.9,6.5,6.1,7.1,10.9c0.7,5-0.5,9.7-1.6,14.5c-1.1,5-2.9,9.8-5.4,14.4c-1.4,2.8-3.3,5.3-4.8,8c-1.9,3.3-4.6,5.8-7.5,8
		c-5,3.8-10.7,5.6-17,5.7c-6.1,0.1-12.2,0.4-18.3,0.5c-0.2,0-0.4,0-0.7-0.1c3.9-12.1,7.8-24.2,11.7-36.3L231.2,99.7z"/>
	<path class="st0" d="M450,73.4c-1.1,3.6-2.2,7.1-3.3,10.6l-15,0.5c-5.6,17.3-11.1,34.5-16.7,51.9h-10.2c5.5-17.1,11-34.3,16.6-51.6
		l-15,0.4c1.1-3.6,2.2-7.1,3.3-10.6L450,73.4z"/>
	<path class="st0" d="M381.4,137.3h-10.3c1-3.2,2-6.3,3-9.5c1-3.2,2-6.5,3.1-9.7c1.1-3.3,2.2-6.6,3.3-9.9c1.1-3.4,2.1-6.8,3.2-10.1
		c1-3.1,2.1-6.3,3.2-9.4c1.4-4.5,2.8-9,4.3-13.6h10.3c-0.4,1-0.7,2.2-1.1,3.3c-1,2.9-2,5.9-3,8.8c-1.7,5.1-3.3,10.2-5,15.3
		c-1.7,5.4-3.4,10.7-5.2,16c-1.6,5-3.2,9.9-4.8,14.9C382,134.7,381.8,136,381.4,137.3z"/>
	<path class="st0" d="M195.4,142.6h-10.2c3.1-9.4,6.2-18.9,9.3-28.7l11.3-3.5C202.3,121.2,198.8,131.8,195.4,142.6z"/>
	<path class="st0" d="M205.6,17.1l-4,11.1l-9.5,1.1c1-3.1,2-5.9,3-8.9l10.1-3.6L205.6,17.1z"/>
</g>
</svg>
